<svg xmlns="http://www.w3.org/2000/svg" viewBox="0 0 128.81 36.17"><defs><style>.cls-1,.cls-2{fill:#fff;}.cls-1{fill-rule:evenodd;}</style></defs><title>logo_1</title><g id="Layer_2" data-name="Layer 2"><g id="Layer_1-2" data-name="Layer 1"><polygon class="cls-1" points="88.55 2.86 95.03 2.86 95.03 4.38 90.29 4.38 90.29 6.88 94.78 6.88 94.78 8.35 90.29 8.35 90.29 11.12 95.28 11.12 95.28 12.67 88.55 12.67 88.55 2.86"/><path class="cls-1" d="M63.31,11.15A5.89,5.89,0,0,0,64.66,11a3.52,3.52,0,0,0,1.22-.54,2.87,2.87,0,0,0,.89-1,3.5,3.5,0,0,0,.35-1.65A3.72,3.72,0,0,0,66.78,6a2.78,2.78,0,0,0-.89-1,3.31,3.31,0,0,0-1.22-.51,6.73,6.73,0,0,0-1.35-.14H61.86v6.79ZM60.12,2.86h3.47a7.66,7.66,0,0,1,1.92.25,5,5,0,0,1,1.74.82A4.31,4.31,0,0,1,68.5,5.44,5,5,0,0,1,69,7.76,4.74,4.74,0,0,1,68.5,10a4.54,4.54,0,0,1-1.26,1.52,5.25,5.25,0,0,1-1.74.88,6.78,6.78,0,0,1-1.92.28H60.12Z"/><path class="cls-1" d="M36.15,8.93l-1.51-4-1.53,4ZM33.94,2.86h1.51l4.21,9.81h-2l-.91-2.25H32.52l-.88,2.25H29.68Z"/><polygon class="cls-1" points="0 2.86 2.72 2.86 5.26 9.83 5.3 9.83 7.82 2.86 10.55 2.86 10.55 12.67 8.82 12.67 8.82 4.79 8.8 4.79 5.83 12.67 4.61 12.67 1.69 4.79 1.66 4.79 1.66 12.67 0 12.67 0 2.86"/><polygon class="cls-1" points="0.81 26.11 2.55 26.11 2.55 30.08 7.12 30.08 7.12 26.11 8.86 26.11 8.86 35.92 7.12 35.92 7.12 31.57 2.55 31.57 2.55 35.92 0.81 35.92 0.81 26.11"/><path class="cls-1" d="M38.28,32.32a4,4,0,0,1-.3,1.6,3.59,3.59,0,0,1-.83,1.21,3.64,3.64,0,0,1-1.24.77,4.64,4.64,0,0,1-3.12,0,3.72,3.72,0,0,1-1.25-.77,3.46,3.46,0,0,1-.83-1.21,4.13,4.13,0,0,1-.3-1.6V26.11h1.74v6.14a3.36,3.36,0,0,0,.11.85,2.1,2.1,0,0,0,.37.76,1.89,1.89,0,0,0,.68.54,2.72,2.72,0,0,0,2.09,0,1.89,1.89,0,0,0,.68-.54,2.1,2.1,0,0,0,.37-.76,3.36,3.36,0,0,0,.11-.85V26.11h1.74Z"/><polygon class="cls-1" points="58.49 26.11 61.22 26.11 63.76 33.08 63.8 33.08 66.31 26.11 69.05 26.11 69.05 35.92 67.32 35.92 67.32 28.04 67.29 28.04 64.32 35.92 63.11 35.92 60.18 28.04 60.15 28.04 60.15 35.92 58.49 35.92 58.49 26.11"/><path class="cls-1" d="M93,32.18l-1.51-4-1.53,4Zm-2.21-6.07h1.51l4.21,9.81h-2l-.91-2.25H89.38l-.88,2.25H86.55Z"/><polygon class="cls-1" points="114.55 26.11 116.86 26.11 121.4 33.46 121.43 33.46 121.43 26.11 123.17 26.11 123.17 35.92 120.96 35.92 116.32 28.34 116.29 28.34 116.29 35.92 114.55 35.92 114.55 26.11"/><path class="cls-2" d="M111.14,6.18c.79,2.18,1.3,3.72,3.86,4.14,1.22.2,2.93-.22,3.39-1.54a3.53,3.53,0,0,0-1.14-3.5c-2.12-1.8-4.63-1.36-5.9,1.11-.07.14,1.52.88,1.64.63.4-.78,1.36-2.4,2.48-2.2.95.16,1.37,1.74,1.36,2.61a2.3,2.3,0,0,1-2.12,2.23c-1,.09-1-.4-1.28-1.11-1.06-2.61-1.91-5.31-2.79-8C110.52.16,109,0,109,0S110.4,4.13,111.14,6.18Z"/><path class="cls-2" d="M116.78,6.63c0,1.45,1.5,2.19,2.74,2.46,2.51.55,3.24-1.77,2.77-3.84l-1.64-.63a27,27,0,0,1,1,5.3c.16,1.61.58,5.43-1.62,6a1.87,1.87,0,0,1-2.23-2.18c.35-1.13,1.76-1.94,2.71-2.46a20.63,20.63,0,0,1,4.26-1.72,8.2,8.2,0,0,1,3.67-.57c1.06.26-.41-.48-.74-.56-2.22-.54-4.81.43-6.83,1.26-1.44.59-5.33,2.16-4.76,4.3.43,1.62,3.66,2.82,5.17,2.66,2.24-.25,2.16-3.4,2.07-5a26.34,26.34,0,0,0-1.06-6.31c-.13-.43-1.62-.55-1.64-.63.27,1.21.4,2.72-.77,3.52-.85.58-1.45.12-1.46-.88,0-.39-1.64-.65-1.64-.63Z"/></g></g></svg>