<svg xmlns="http://www.w3.org/2000/svg" width="158" height="43" viewBox="0 0 158 43">
  <g fill="#FFFFFF" fill-rule="evenodd">
    <polygon points=".326 .964 3.675 .964 6.803 9.515 6.854 9.515 9.948 .964 13.314 .964 13.314 13 11.189 13 11.189 3.327 11.155 3.327 7.5 13 6.004 13 2.4 3.327 2.366 3.327 2.366 13 .326 13"/>
    <path d="M42.1.964L43.953.964 49.138 13 46.69 13 45.568 10.246 40.349 10.246 39.261 13 36.864 13 42.1.964zM44.82 8.41L42.967 3.514 41.08 8.41 44.82 8.41zM74.326.964L78.593.964C79.3750039.964 80.1626627 1.06599898 80.956 1.27 81.7493373 1.47400102 82.4633302 1.81116431 83.098 2.2815 83.7326698 2.75183569 84.2483314 3.36949618 84.645 4.1345 85.0416687 4.89950383 85.24 5.848661 85.24 6.982 85.24 8.03600527 85.0416687 8.94266287 84.645 9.702 84.2483314 10.4613371 83.7326698 11.0846642 83.098 11.572 82.4633302 12.0593358 81.7493373 12.4191655 80.956 12.6515 80.1626627 12.8838345 79.3750039 13 78.593 13L74.326 13 74.326.964zM78.253 11.13C78.8083361 11.13 79.3636639 11.064834 79.919 10.9345 80.4743361 10.804166 80.9758311 10.5831682 81.4235 10.2715 81.8711689 9.95983178 82.2366653 9.53766933 82.52 9.005 82.8033348 8.47233067 82.945 7.79800408 82.945 6.982 82.945 6.12066236 82.8033348 5.41800272 82.52 4.874 82.2366653 4.32999728 81.8711689 3.90500153 81.4235 3.599 80.9758311 3.29299847 80.4743361 3.0833339 79.919 2.97 79.3636639 2.8566661 78.8083361 2.8 78.253 2.8L76.468 2.8 76.468 11.13 78.253 11.13z"/>
    <polygon points="109.326 .964 117.299 .964 117.299 2.834 111.468 2.834 111.468 5.894 116.993 5.894 116.993 7.696 111.468 7.696 111.468 11.096 117.605 11.096 117.605 13 109.326 13"/>
    <g transform="translate(1 29)">
      <polygon points=".326 .964 2.468 .964 2.468 5.826 8.095 5.826 8.095 .964 10.237 .964 10.237 13 8.095 13 8.095 7.662 2.468 7.662 2.468 13 .326 13"/>
      <path d="M46.914,8.58 C46.914,9.30533696 46.7893346,9.95983041 46.54,10.5435 C46.2906654,11.1271696 45.9506688,11.622998 45.52,12.031 C45.0893312,12.439002 44.5793363,12.7534989 43.99,12.9745 C43.4006637,13.1955011 42.7603368,13.306 42.069,13.306 C41.3776632,13.306 40.7373363,13.1955011 40.148,12.9745 C39.5586637,12.7534989 39.0458355,12.439002 38.6095,12.031 C38.1731645,11.622998 37.8331679,11.1271696 37.5895,10.5435 C37.3458321,9.95983041 37.224,9.30533696 37.224,8.58 L37.224,0.964 L39.366,0.964 L39.366,8.495 C39.366,8.84633509 39.4113329,9.19483161 39.502,9.5405 C39.5926671,9.88616839 39.7428323,10.1949986 39.9525,10.467 C40.1621677,10.7390014 40.4398316,10.9599991 40.7855,11.13 C41.1311684,11.3000008 41.5589974,11.385 42.069,11.385 C42.5790025,11.385 43.0068316,11.3000008 43.3525,11.13 C43.6981684,10.9599991 43.9758323,10.7390014 44.1855,10.467 C44.3951677,10.1949986 44.5453329,9.88616839 44.636,9.5405 C44.7266671,9.19483161 44.772,8.84633509 44.772,8.495 L44.772,0.964 L46.914,0.964 L46.914,8.58 Z"/>
      <polygon points="71.326 .964 74.675 .964 77.803 9.515 77.854 9.515 80.948 .964 84.314 .964 84.314 13 82.189 13 82.189 3.327 82.155 3.327 78.5 13 77.004 13 73.4 3.327 73.366 3.327 73.366 13 71.326 13"/>
      <path d="M111.1,0.964 L112.953,0.964 L118.138,13 L115.69,13 L114.568,10.246 L109.349,10.246 L108.261,13 L105.864,13 L111.1,0.964 Z M113.82,8.41 L111.967,3.514 L110.08,8.41 L113.82,8.41 Z"/>
      <polygon points="140.326 .964 143.165 .964 148.758 9.974 148.792 9.974 148.792 .964 150.934 .964 150.934 13 148.214 13 142.502 3.701 142.468 3.701 142.468 13 140.326 13"/>
    </g>
    <g transform="translate(139)">
      <path d="M7.26,0.41 C6.459996,1.7100065 5.76500295,2.84249517 5.175,3.8075 C4.58499705,4.77250482 4.07750213,5.59999655 3.6525,6.29 C3.22749788,6.98000345 2.88250133,7.55749767 2.6175,8.0225 C2.35249868,8.48750232 2.14250078,8.87249847 1.9875,9.1775 C1.83249923,9.48250152 1.73000025,9.73249902 1.68,9.9275 C1.62999975,10.122501 1.60999995,10.2949992 1.62,10.445 C1.65000015,10.8150018 1.8449982,11 2.205,11 C2.57500185,11 2.93749823,10.8650013 3.2925,10.595 C3.64750178,10.3249986 3.97249853,9.98750202 4.2675,9.5825 C4.56250148,9.17749797 4.81749893,8.7450023 5.0325,8.285 C5.24750108,7.8249977 5.39999955,7.40000195 5.49,7.01 C5.4699999,6.9299996 5.4500001,6.84750042 5.43,6.7625 C5.4099999,6.67749957 5.4,6.5850005 5.4,6.485 C5.4,6.2249987 5.48499915,5.98250112 5.655,5.7575 C5.82500085,5.53249887 6.0699984,5.42 6.39,5.42 C6.68000145,5.42 6.91249913,5.519999 7.0875,5.72 C7.26250088,5.920001 7.35,6.2099981 7.35,6.59 C7.35,6.68000045 7.34250008,6.7949993 7.3275,6.935 C7.31249993,7.0750007 7.2850002,7.21999925 7.245,7.37 C7.35500055,7.48000055 7.49249918,7.58249952 7.6575,7.6775 C7.82250083,7.77250047 8.0349987,7.82 8.295,7.82 C8.60500155,7.82 8.8699989,7.73500085 9.09,7.565 C9.3100011,7.39499915 9.4999992,7.21500095 9.66,7.025 L9.75,7.145 C9.67999965,7.23500045 9.59750048,7.3299995 9.5025,7.43 C9.40749953,7.5300005 9.3000006,7.62249957 9.18,7.7075 C9.0599994,7.79250042 8.92500075,7.86249972 8.775,7.9175 C8.62499925,7.97250027 8.45500095,8 8.265,8 C8.0449989,8 7.84250093,7.95500045 7.6575,7.865 C7.47249908,7.77499955 7.32500055,7.6700006 7.215,7.55 C7.0549992,8.0700026 6.80750168,8.55249777 6.4725,8.9975 C6.13749833,9.44250222 5.74750223,9.82749837 5.3025,10.1525 C4.85749778,10.4775016 4.37250263,10.7299991 3.8475,10.91 C3.32249738,11.0900009 2.7900027,11.18 2.25,11.18 C1.6099968,11.18 1.10500185,11.0100017 0.735,10.67 C0.36499815,10.3299983 0.18,9.85500305 0.18,9.245 C0.18,9.07499915 0.2099997,8.88750102 0.27,8.6825 C0.3300003,8.47749897 0.432499275,8.23000145 0.5775,7.94 C0.722500725,7.64999855 0.917498775,7.30000205 1.1625,6.89 C1.40750123,6.47999795 1.7099982,5.98250292 2.07,5.3975 C2.4300018,4.81249707 2.85749753,4.12250397 3.3525,3.3275 C3.84750248,2.53249602 4.41999675,1.61000525 5.07,0.56 L7.26,0.41 Z M12.8378571,5.48 C12.7678567,5.63000075 12.6528579,5.8349987 12.4928571,6.095 C12.3328563,6.3550013 12.1528581,6.63999845 11.9528571,6.95 C11.7528561,7.26000155 11.5478581,7.58249832 11.3378571,7.9175 C11.127856,8.25250167 10.9353579,8.57249847 10.7603571,8.8775 C10.5853562,9.18250152 10.4428576,9.45749877 10.3328571,9.7025 C10.2228565,9.94750122 10.1678571,10.1349993 10.1678571,10.265 C10.1678571,10.3850006 10.1928568,10.4924995 10.2428571,10.5875 C10.2928573,10.6825005 10.3828564,10.73 10.5128571,10.73 C10.7128581,10.73 10.9453557,10.6400009 11.2103571,10.46 C11.4753584,10.2799991 11.7478557,10.0450014 12.0278571,9.755 C12.3078585,9.46499855 12.5828557,9.14250177 12.8528571,8.7875 C13.1228584,8.43249822 13.3528561,8.0850017 13.5428571,7.745 L14.7278571,5.66 L16.8428571,5.6 C16.3228545,6.49000445 15.8028597,7.35999575 15.2828571,8.21 C14.7628545,9.06000425 14.2478596,9.8949959 13.7378571,10.715 L13.7678571,10.745 C14.0778586,10.6349994 14.437855,10.4525013 14.8478571,10.1975 C15.2578591,9.94249872 15.6778549,9.64250172 16.1078571,9.2975 C16.5378592,8.95249827 16.960355,8.57250207 17.3753571,8.1575 C17.7903591,7.74249792 18.1528555,7.32000215 18.4628571,6.89 L18.5828571,6.98 C18.4028562,7.23000125 18.1478587,7.53999815 17.8178571,7.91 C17.4878554,8.28000185 17.1053592,8.65749807 16.6703571,9.0425 C16.2353549,9.42750192 15.7578597,9.79499825 15.2378571,10.145 C14.7178545,10.4950017 14.1778599,10.7749989 13.6178571,10.985 C13.2278551,11.7050036 12.7878595,12.364997 12.2978571,12.965 C11.8078546,13.565003 11.2628601,14.0774979 10.6628571,14.5025 C10.0628541,14.9275021 9.40536065,15.2599988 8.69035707,15.5 C7.9753535,15.7400012 7.19286132,15.86 6.34285707,15.86 C6.02285547,15.86 5.68535885,15.8200004 5.33035707,15.74 C4.9753553,15.6599996 4.65035855,15.5350008 4.35535707,15.365 C4.0603556,15.1949991 3.81785802,14.9750013 3.62785707,14.705 C3.43785612,14.4349986 3.34285707,14.1050019 3.34285707,13.715 C3.34285707,13.4049984 3.41535635,13.1300012 3.56035707,12.89 C3.7053578,12.6499988 3.89285592,12.4500008 4.12285707,12.29 C4.35285822,12.1299992 4.61035565,12.0100004 4.89535707,11.93 C5.1803585,11.8499996 5.45785572,11.81 5.72785707,11.81 C6.14785917,11.81 6.57785487,11.8549995 7.01785707,11.945 L7.01785707,12.08 C6.95785677,12.0599999 6.88285752,12.05 6.79285707,12.05 L6.52285707,12.05 C6.26285577,12.05 6.04535795,12.0974995 5.87035707,12.1925 C5.6953562,12.2875005 5.5553576,12.4124992 5.45035707,12.5675 C5.34535655,12.7225008 5.26785732,12.9049989 5.21785707,13.115 C5.16785682,13.325001 5.14285707,13.5449988 5.14285707,13.775 C5.14285707,14.375003 5.27785572,14.8424983 5.54785707,15.1775 C5.81785842,15.5125017 6.18785472,15.68 6.65785707,15.68 C7.11785937,15.68 7.56285492,15.5625012 7.99285707,15.3275 C8.42285922,15.0924988 8.83035515,14.7875019 9.21535707,14.4125 C9.600359,14.0374981 9.96785532,13.6100024 10.3178571,13.13 C10.6678588,12.6499976 10.9978555,12.1625025 11.3078571,11.6675 C11.6178586,11.1724975 11.9103557,10.6925023 12.1853571,10.2275 C12.4603584,9.76249767 12.7178559,9.3600017 12.9578571,9.02 L12.9278571,8.99 C12.7378561,9.22000115 12.5303582,9.4649987 12.3053571,9.725 C12.0803559,9.9850013 11.8303584,10.2224989 11.5553571,10.4375 C11.2803557,10.6525011 10.9828587,10.8299993 10.6628571,10.97 C10.3428555,11.1100007 9.99785892,11.18 9.62785707,11.18 C9.43785612,11.18 9.27535775,11.1450003 9.14035707,11.075 C9.0053564,11.0049996 8.89285752,10.9100006 8.80285707,10.79 C8.71285662,10.6699994 8.64785727,10.5325008 8.60785707,10.3775 C8.56785687,10.2224992 8.54785707,10.0650008 8.54785707,9.905 C8.54785707,9.53499815 8.6353562,9.15750192 8.81035707,8.7725 C8.98535795,8.38749807 9.1903559,8.00750187 9.42535707,7.6325 C9.66035825,7.25749812 9.89785587,6.89750172 10.1378571,6.5525 C10.3778583,6.20749827 10.5678564,5.89000145 10.7078571,5.6 L12.8378571,5.48 Z"/>
    </g>
  </g>
</svg>
